# xmcd
#
# Track frame offsets:
#	150
#	29209
#	50020
#	69424
#	98097
#	125275
#	145550
#	160619
#	184740
#	207487
#	233538
#	253819
#
# Disc length: 3713 seconds
#
# Revision: 1
# Processed by: cddbd v1.5.2PL0 Copyright (c) Steve Scherf et al.
# Submitted via: audiograbber 1.83.01
#
DISCID=a50e7f0c
DTITLE=Nicole Metzger - Nicole Metzger sings Gershwin
DYEAR=1997
DGENRE=Blues
TTITLE0=The man I love
TTITLE1=Somebody loves me
TTITLE2=Soon
TTITLE3=Oh, Lady be good
TTITLE4=I've got a crush on you
TTITLE5=A foggy day
TTITLE6=Fascinating rhythm
TTITLE7=But not for me
TTITLE8=Who cares
TTITLE9=They can't take that away from me
TTITLE10='S wonderful
TTITLE11=Our love is here to stay
EXTD=
EXTT0=
EXTT1=
EXTT2=
EXTT3=
EXTT4=
EXTT5=
EXTT6=
EXTT7=
EXTT8=
EXTT9=
EXTT10=
EXTT11=
PLAYORDER=
